<svg xmlns="http://www.w3.org/2000/svg" width="163" height="36" viewBox="0 0 201 42" fill="#ffc600">
  <g>
    <path d="m 16.926287,0.18129 q 8.7,0 14.52,6.06 5.88,6 5.88,14.94001 0,8.94 -5.88,15 -5.82,6 -14.52,6 l -16.79999968,0 0,-42.00001 16.79999968,0 z m 0,32.76001 q 4.98,0 8.04,-3.18 3.12,-3.24 3.12,-8.58 0,-5.34001 -3.12,-8.52001 -3.06,-3.24 -8.04,-3.24 l -7.1999996,0 0,23.52001 7.1999996,0 z" />
    <path d="m 52.642537,32.9413 16.8,0 0,9.24 -26.4,0 0,-42.00001 26.1,0 0,9.24 -16.5,0 0,6.96 15,0 0,9.12001 -15,0 0,7.44 z" />
    <path d="M 85.140349,42.1813 71.460347,0.18129 l 10.500002,0 9.3,30.90001 9.300001,-30.90001 10.5,0 -13.680001,42.00001 -12.24,0 z" />
    <path d="m 114.92973,0.18129 9.6,0 0,42.00001 -9.6,0 0,-42.00001 z" />
    <path d="m 151.98753,43.0213 q -9.42,0 -15.66,-6.24 -6.18,-6.3 -6.18,-15.6 0,-9.30001 6.18,-15.54001 6.24,-6.3 15.66,-6.3 5.64,0 10.44,2.64 4.8,2.58 7.56,7.08 l -8.28,4.8 q -1.38,-2.46 -3.96,-3.78 -2.58,-1.38 -5.76,-1.38 -5.58,0 -8.94,3.42 -3.3,3.42 -3.3,9.06001 0,5.64 3.3,9.06 3.36,3.42 8.94,3.42 3.18,0 5.76,-1.38 2.64,-1.38 3.96,-3.78 l 8.28,4.8 q -2.7,4.5 -7.5,7.14 -4.8,2.58 -10.5,2.58 z" />
    <path d="m 184.34661,32.9413 16.8,0 0,9.24 -26.4,0 0,-42.00001 26.1,0 0,9.24 -16.5,0 0,6.96 15,0 0,9.12001 -15,0 0,7.44 z" />
  </g>
</svg>
